<svg width="19856" height="55" viewBox="0 0 19856 55" fill="none" xmlns="http://www.w3.org/2000/svg">
<line x1="9940.52" y1="26.5" x2="14896.6" y2="26.5" stroke="black" stroke-width="3" stroke-dasharray="10 10"/>
<circle cx="9928" cy="26" r="25" transform="rotate(-90 9928 26)" fill="black"/>
<circle cx="14879.4" cy="26" r="25" transform="rotate(-90 14879.4 26)" fill="black"/>
<circle cx="11544.6" cy="28" r="25" transform="rotate(-90 11544.6 28)" fill="black"/>
<circle cx="13236.2" cy="26" r="25" transform="rotate(-90 13236.2 26)" fill="black"/>
<line x1="14891.9" y1="25.5" x2="19848" y2="25.5" stroke="black" stroke-width="3" stroke-dasharray="10 10"/>
<circle cx="14879.4" cy="25" r="25" transform="rotate(-90 14879.4 25)" fill="black"/>
<circle cx="19830.8" cy="25" r="25" transform="rotate(-90 19830.8 25)" fill="black"/>
<circle cx="16496" cy="27" r="25" transform="rotate(-90 16496 27)" fill="black"/>
<circle cx="18187.7" cy="25" r="25" transform="rotate(-90 18187.7 25)" fill="black"/>
<line x1="37.5215" y1="28.5" x2="4993.63" y2="28.5" stroke="black" stroke-width="3" stroke-dasharray="10 10"/>
<circle cx="25" cy="28" r="25" transform="rotate(-90 25 28)" fill="black"/>
<circle cx="4976.41" cy="28" r="25" transform="rotate(-90 4976.41 28)" fill="black"/>
<circle cx="1641.6" cy="30" r="25" transform="rotate(-90 1641.6 30)" fill="black"/>
<circle cx="3333.24" cy="28" r="25" transform="rotate(-90 3333.24 28)" fill="black"/>
<line x1="4988.94" y1="27.5" x2="9945.04" y2="27.5" stroke="black" stroke-width="3" stroke-dasharray="10 10"/>
<circle cx="4976.41" cy="27" r="25" transform="rotate(-90 4976.41 27)" fill="black"/>
<circle cx="9927.83" cy="27" r="25" transform="rotate(-90 9927.83 27)" fill="black"/>
<circle cx="6593.01" cy="29" r="25" transform="rotate(-90 6593.01 29)" fill="black"/>
<circle cx="8284.65" cy="27" r="25" transform="rotate(-90 8284.65 27)" fill="black"/>
</svg>
